<?xml version="1.0" standalone="no"?>
<!DOCTYPE svg PUBLIC "-//W3C//DTD SVG 20010904//EN"
 "http://www.w3.org/TR/2001/REC-SVG-20010904/DTD/svg10.dtd">
<svg version="1.0" xmlns="http://www.w3.org/2000/svg"
 width="333.000000pt" height="325.000000pt" viewBox="0 0 333.000000 325.000000"
 preserveAspectRatio="xMidYMid meet">

<g transform="translate(0.000000,325.000000) scale(0.100000,-0.100000)"
fill="#000000" stroke="none">
<path d="M1089 3120 c-131 -23 -188 -91 -160 -189 10 -37 26 -36 50 4 19 33
25 36 58 33 43 -3 63 -33 70 -102 5 -50 -27 -100 -48 -78 -7 6 -17 12 -21 12
-11 0 -10 -38 2 -61 11 -19 3 -19 -425 -19 -239 0 -435 -3 -435 -7 0 -5 56
-105 124 -223 l125 -214 -87 -34 c-48 -18 -91 -37 -96 -42 -14 -13 104 -65
206 -90 l84 -22 33 -54 c18 -30 30 -58 27 -63 -3 -5 -26 -12 -50 -15 -81 -13
-306 -94 -309 -112 -3 -16 151 -75 246 -95 51 -10 131 -19 179 -20 77 -2 87
-5 97 -23 5 -12 21 -40 35 -62 l26 -41 -103 0 c-70 0 -130 -7 -189 -21 -89
-22 -265 -86 -282 -102 -13 -13 101 -64 205 -91 97 -25 313 -37 395 -22 51 10
52 9 69 -21 10 -17 47 -65 81 -107 l63 -77 -107 -4 c-96 -3 -113 -7 -162 -33
-80 -44 -164 -131 -200 -206 -25 -53 -39 -109 -27 -109 2 0 30 26 62 58 110
105 228 149 375 139 47 -4 108 -13 135 -22 l50 -15 245 -426 c235 -409 245
-425 260 -404 8 13 110 190 227 394 157 274 220 376 243 391 16 11 59 39 95
62 l65 41 53 -14 c78 -21 278 -29 378 -15 88 13 241 59 297 89 l34 18 -74 31
c-161 68 -345 107 -451 96 l-57 -6 25 54 c14 30 25 59 25 66 0 8 27 12 83 12
45 1 123 10 172 20 90 19 250 75 260 91 6 10 -176 82 -267 104 -36 9 -93 20
-125 24 l-58 7 0 50 0 50 35 2 c127 9 265 43 373 91 l59 26 -27 13 c-43 23
-206 80 -267 93 -32 7 -58 15 -58 17 0 2 20 39 45 82 l45 78 73 21 c104 30
193 72 176 83 -8 5 -45 21 -82 35 -40 15 -66 31 -64 38 3 6 59 106 125 221
l121 210 -556 5 -556 5 78 34 c100 44 179 104 234 178 45 60 95 152 88 159 -2
3 -24 -4 -48 -14 -58 -25 -124 -41 -215 -52 -98 -13 -198 -48 -296 -105 l-78
-45 -83 56 c-116 81 -223 127 -362 158 -136 31 -220 39 -286 26z m284 -40 c73
-17 161 -44 196 -61 68 -31 231 -136 231 -148 0 -4 -11 -18 -25 -31 -14 -13
-41 -47 -62 -77 l-36 -53 -31 20 c-51 34 -157 86 -223 110 -46 17 -76 21 -110
17 -43 -5 -53 -11 -103 -65 -45 -50 -102 -92 -124 -92 -2 0 -14 16 -26 36 -22
35 -21 59 2 36 18 -18 24 -15 43 28 20 45 16 117 -10 157 -12 18 -24 23 -60
23 -40 0 -48 -4 -64 -30 -23 -38 -31 -29 -31 31 0 43 4 51 35 76 77 62 197 69
398 23z m1053 -25 c-15 -39 -90 -136 -141 -183 -68 -63 -151 -103 -350 -172
-239 -83 -261 -104 -251 -233 12 -136 5 -129 89 -95 49 20 96 31 147 35 72 5
78 4 155 -36 44 -22 100 -58 125 -79 l44 -39 -47 -21 c-26 -11 -47 -25 -47
-31 0 -5 33 -22 73 -37 39 -15 77 -34 83 -41 6 -7 17 -48 23 -91 7 -42 15 -86
17 -98 5 -18 -5 -25 -78 -53 -46 -17 -94 -38 -107 -45 l-24 -13 23 -13 c13 -7
58 -25 100 -41 l75 -27 -2 -39 c-2 -47 -43 -153 -63 -165 -8 -4 -44 -21 -80
-37 l-65 -29 42 -19 c24 -10 43 -22 43 -26 0 -19 -79 -127 -143 -193 -78 -83
-160 -143 -209 -153 -46 -10 -118 5 -145 31 l-23 21 -49 -26 c-62 -34 -116
-35 -179 -3 -99 50 -224 167 -294 275 l-42 63 25 19 24 18 -43 17 c-41 17 -43
19 -71 108 -40 128 -46 175 -24 182 54 19 124 55 119 62 -3 5 -37 21 -76 36
l-72 28 7 52 c4 28 16 79 27 114 19 61 20 63 76 88 53 24 56 26 38 39 -10 8
-23 16 -29 18 -6 2 -6 10 1 24 15 28 117 120 156 140 72 37 247 23 334 -28
l34 -19 -3 134 -3 134 38 77 c87 176 287 301 536 335 44 6 107 19 138 30 72
23 75 23 68 5z m-1004 -231 c79 -29 151 -63 183 -88 18 -14 0 -15 -209 -16
l-228 0 32 38 c71 84 74 86 132 91 9 0 50 -11 90 -25z m-347 -134 c4 -7 12 -7
25 0 17 9 570 15 570 7 0 -2 -7 -18 -16 -35 l-15 -32 -635 0 c-349 0 -634 -4
-634 -8 0 -5 39 -77 86 -161 47 -84 84 -154 82 -155 -15 -11 -92 -26 -98 -19
-6 7 -122 206 -206 356 l-33 57 434 0 c279 0 436 -4 440 -10z m2054 -12 c-11
-20 -220 -389 -224 -396 -4 -6 -105 22 -105 29 0 5 38 77 85 161 l85 153 -433
3 -433 2 -29 30 c-16 17 -33 30 -39 30 -6 0 53 -64 130 -142 161 -164 221
-235 208 -247 -5 -5 -32 -16 -61 -25 l-52 -17 -58 47 c-32 26 -94 65 -138 85
-67 32 -96 54 -179 137 -61 63 -94 102 -87 107 7 3 49 19 94 35 l82 28 583 1
583 1 -12 -22z m-1499 -93 l0 -25 -92 6 c-238 16 -475 -83 -594 -248 l-19 -26
-65 14 c-73 17 -192 22 -260 11 l-45 -7 -54 97 c-30 54 -67 122 -84 151 l-29
52 621 0 621 0 0 -25z m245 -65 c49 -49 85 -90 78 -90 -6 0 -34 16 -62 35 -28
18 -83 44 -121 56 -39 13 -70 27 -70 33 0 18 43 56 64 56 14 0 55 -34 111 -90z
m1065 85 c0 -2 -37 -70 -81 -150 -65 -117 -85 -145 -98 -139 -35 15 -236 16
-298 1 l-62 -14 -33 46 c-18 25 -79 94 -137 153 l-104 108 407 0 c223 0 406
-2 406 -5z m-1315 -66 c4 -6 9 -47 13 -91 5 -77 4 -81 -14 -73 -81 34 -137 47
-209 48 -108 1 -157 -22 -250 -116 l-71 -73 -72 26 c-40 14 -72 31 -72 37 0
27 126 139 197 176 109 57 195 76 345 76 79 1 129 -3 133 -10z m137 -30 c74
-25 153 -69 141 -79 -4 -4 -30 -13 -58 -19 -27 -7 -69 -21 -92 -31 l-42 -18
-6 56 c-3 32 -8 69 -10 85 -3 15 -2 27 1 27 2 0 32 -9 66 -21z m766 -221 c-31
-44 -31 -111 -1 -154 l22 -31 -52 5 c-70 6 -221 45 -282 73 l-50 22 30 13 c60
26 247 84 298 93 28 5 53 9 55 10 2 0 -7 -14 -20 -31z m197 18 c52 -5 243 -63
292 -90 l28 -15 -48 -21 c-54 -24 -227 -70 -263 -70 l-24 0 21 40 c26 49 21
104 -12 134 l-22 21 17 -29 c36 -57 18 -134 -36 -162 -79 -41 -158 10 -158
103 1 64 50 106 115 99 22 -3 63 -7 90 -10z m-2100 -32 c-33 -48 -33 -100 -1
-147 l25 -36 -52 6 c-73 8 -223 47 -281 73 -49 22 -49 23 -25 36 53 30 288 99
346 103 7 1 2 -14 -12 -35z m171 2 c27 -27 34 -42 34 -74 0 -115 -154 -152
-203 -49 -21 43 -21 60 -2 97 21 40 53 60 98 60 31 0 46 -7 73 -34z m192 -22
c56 -18 114 -40 128 -47 26 -14 26 -14 -37 -40 -72 -30 -149 -51 -228 -62
l-53 -7 23 32 c29 38 31 110 6 138 -10 10 -17 22 -17 26 0 11 68 -4 178 -40z
m47 -141 c-13 -34 -35 -138 -35 -167 0 -24 -3 -28 -22 -22 -13 3 -53 13 -90
22 -40 10 -68 22 -68 30 0 7 5 35 12 63 9 41 16 51 32 52 12 1 50 9 86 19 87
23 94 24 85 3z m1414 -14 l63 -11 24 -55 c13 -29 24 -59 24 -66 0 -8 -28 -17
-72 -25 -40 -7 -85 -15 -99 -18 -26 -6 -26 -4 -38 73 -7 43 -15 89 -18 102 -5
22 -3 23 23 18 16 -4 58 -11 93 -18z m308 -74 l-42 -76 -57 3 c-32 1 -58 4
-58 5 0 1 16 31 36 67 37 69 39 70 131 74 l32 2 -42 -75z m-2126 55 c36 0 40
-3 64 -49 27 -55 23 -61 -40 -61 -30 0 -37 6 -64 54 -35 61 -38 71 -15 62 9
-3 33 -6 55 -6z m185 -52 c-10 -57 -11 -58 -43 -58 -29 0 -35 5 -58 50 -14 27
-25 52 -25 54 0 4 92 11 136 11 1 0 -4 -26 -10 -57z m1834 55 c0 -5 -16 -35
-34 -68 -29 -51 -36 -57 -42 -40 -4 11 -15 40 -25 64 -11 24 -19 45 -19 47 0
2 27 4 60 4 33 0 60 -3 60 -7z m-2035 -159 c-33 -48 -33 -98 1 -147 l26 -38
-39 6 c-135 21 -177 31 -250 57 -46 17 -85 34 -88 38 -10 16 238 99 340 113
17 2 31 5 32 6 1 0 -9 -15 -22 -35z m178 -4 c40 -45 38 -101 -7 -146 -84 -84
-214 3 -174 117 25 73 127 89 181 29z m100 9 c118 -30 241 -79 229 -91 -27
-27 -303 -100 -319 -84 -3 3 1 14 11 25 28 31 31 85 7 131 -11 22 -18 40 -15
40 3 0 42 -9 87 -21z m1632 -25 c-33 -49 -33 -103 0 -142 14 -17 25 -32 25
-34 0 -8 -144 12 -200 28 -94 25 -184 66 -167 75 55 31 294 104 354 108 7 1 2
-14 -12 -35z m202 22 c54 -5 299 -82 309 -97 12 -20 -173 -81 -283 -94 l-58
-8 23 25 c32 35 38 87 17 132 -10 20 -22 36 -27 36 -6 0 -3 -11 6 -25 9 -13
16 -43 16 -66 0 -33 -6 -47 -34 -75 -36 -36 -62 -41 -114 -23 -78 27 -90 146
-19 190 23 14 43 18 72 15 22 -3 63 -7 92 -10z m-1712 -202 c3 -25 17 -80 31
-120 13 -41 24 -76 24 -77 0 -2 -39 9 -87 24 -49 15 -100 30 -115 33 -24 5
-27 12 -38 77 -7 38 -10 71 -9 73 5 3 150 33 170 35 12 1 19 -11 24 -45z
m1403 -50 c4 -67 -10 -100 -45 -107 -15 -4 -37 -9 -48 -12 -20 -6 -20 -2 9 88
30 91 32 94 56 87 22 -6 25 -13 28 -56z m-1612 42 c3 -8 4 -25 2 -38 -3 -22
-4 -21 -21 9 -9 18 -17 34 -17 38 0 12 31 4 36 -9z m1792 -11 c2 -2 0 -26 -4
-54 l-7 -51 -41 0 c-22 0 -58 -4 -78 -9 l-38 -9 0 69 0 68 83 -6 c45 -3 83 -7
85 -8z m-1968 -140 c-35 -37 -39 -110 -8 -155 l25 -36 -66 7 c-88 10 -147 24
-226 54 -89 33 -92 36 -64 51 56 31 276 95 353 103 5 1 -1 -10 -14 -24z m166
-9 c28 -28 34 -42 34 -75 0 -124 -175 -150 -211 -32 -22 74 27 141 103 141 32
0 47 -7 74 -34z m1722 2 c-31 -44 -31 -111 -1 -154 l22 -31 -52 5 c-120 11
-349 84 -317 102 37 20 203 74 280 90 47 10 86 19 88 19 2 1 -7 -14 -20 -31z
m172 21 c40 -1 178 -38 264 -71 71 -28 78 -32 61 -44 -35 -26 -240 -84 -296
-84 -19 0 -19 0 1 37 11 21 20 48 20 61 0 30 -29 92 -42 92 -6 0 -3 -11 6 -25
21 -32 20 -104 -2 -131 -68 -84 -195 -40 -194 67 1 70 50 113 117 104 22 -3
51 -6 65 -6z m-1752 -29 c55 -16 125 -40 154 -53 l53 -24 -40 -17 c-59 -25
-197 -64 -256 -72 l-52 -7 24 32 c30 40 33 109 7 138 -38 42 -22 42 110 3z
m211 -167 c63 -104 202 -236 306 -291 22 -12 33 -21 24 -22 -30 0 -135 22
-209 45 -41 13 -97 26 -125 30 -43 6 -57 14 -100 60 -65 67 -129 160 -121 174
4 6 17 11 29 12 12 0 49 11 82 23 33 13 65 24 70 25 6 0 25 -25 44 -56z m1139
21 c32 -9 58 -18 60 -19 6 -5 -60 -129 -100 -187 -21 -32 -52 -65 -68 -73 -17
-9 -30 -22 -30 -30 0 -30 -137 -113 -255 -153 -100 -34 -257 -55 -359 -49 -71
4 -115 14 -201 45 -203 72 -342 98 -446 81 -85 -13 -191 -65 -258 -125 -46
-41 -53 -45 -46 -24 25 86 130 201 224 247 52 26 64 28 176 27 73 -1 143 -7
180 -16 33 -9 105 -28 160 -42 59 -16 132 -27 180 -29 74 -2 84 0 132 30 50
31 51 31 69 12 19 -21 73 -39 120 -39 80 0 246 134 344 278 30 45 57 81 58 82
2 0 29 -7 60 -16z m194 -41 l56 -6 -13 -37 c-22 -63 -45 -100 -61 -100 -8 0
-62 -15 -119 -34 -58 -19 -105 -32 -105 -30 0 2 17 30 38 62 20 32 48 82 62
111 23 50 26 52 55 46 16 -3 55 -8 87 -12z m43 -179 c-38 -56 -29 -133 19
-166 22 -15 -3 -16 -89 -3 -100 16 -168 34 -241 66 -47 21 -47 22 -23 34 60
31 286 99 346 104 7 1 2 -15 -12 -35z m155 19 c50 -29 64 -95 34 -156 l-16
-32 23 23 c30 29 34 109 7 139 -26 28 -22 35 15 28 52 -10 250 -74 277 -89
l25 -14 -50 -22 c-75 -32 -193 -62 -255 -65 -30 -1 -72 -6 -93 -10 -86 -17
-150 54 -126 141 18 64 99 93 159 57z m-446 -144 c31 -12 56 -25 56 -28 0 -11
-112 -79 -180 -110 -108 -48 -176 -64 -281 -64 -52 0 -103 4 -112 9 -18 10 -2
16 133 49 81 19 211 81 270 128 25 20 48 36 52 36 3 1 31 -9 62 -20z m-961
-113 c28 -12 54 -53 202 -320 l170 -307 3 282 c2 247 4 280 17 269 13 -10 15
-56 15 -283 0 -165 4 -267 9 -261 5 5 73 124 150 263 78 140 145 259 150 264
10 10 113 49 117 44 3 -3 -412 -727 -424 -739 -6 -6 -94 137 -241 392 -127
221 -231 404 -231 406 0 8 32 4 63 -10z m137 -47 c38 -12 97 -21 142 -22 l78
-2 0 -244 c0 -146 -4 -241 -9 -235 -8 8 -233 411 -275 492 -19 38 -20 38 64
11z m550 -58 c0 -7 -252 -461 -256 -461 -2 0 -4 105 -4 233 l0 232 130 0 c72
0 130 -2 130 -4z"/>
<path d="M1026 3061 c-15 -6 -16 -9 -5 -13 8 -3 20 1 27 8 14 15 7 17 -22 5z"/>
<path d="M986 3023 c-6 -14 -5 -15 5 -6 7 7 10 15 7 18 -3 3 -9 -2 -12 -12z"/>
<path d="M2160 2910 c-8 -5 -10 -10 -5 -10 6 0 17 5 25 10 8 5 11 10 5 10 -5
0 -17 -5 -25 -10z"/>
<path d="M2039 2861 c-111 -44 -188 -87 -244 -137 -47 -43 -33 -36 54 25 36
25 114 66 174 92 92 40 133 61 116 58 -2 0 -47 -17 -100 -38z"/>
<path d="M1311 2053 l-40 -48 39 -40 39 -40 -30 -39 c-32 -43 -32 -64 0 -25
47 58 48 66 7 108 l-38 39 37 41 c21 23 35 44 33 47 -3 3 -24 -17 -47 -43z"/>
<path d="M1440 1968 l0 -132 38 44 c48 56 65 80 56 80 -3 0 -24 -19 -45 -42
l-38 -43 -1 40 c0 31 10 55 45 107 25 37 45 70 45 73 0 3 -22 5 -50 5 l-50 0
0 -132z m59 85 c-42 -71 -49 -73 -49 -15 l0 52 36 0 36 0 -23 -37z"/>
<path d="M1600 1968 l0 -132 38 44 c48 56 65 80 56 80 -3 0 -24 -19 -45 -42
l-38 -43 -1 39 c0 30 11 55 45 107 25 38 45 71 45 74 0 3 -22 5 -50 5 l-50 0
0 -132z m64 94 c-9 -16 -25 -39 -35 -53 l-19 -24 0 53 0 52 36 0 35 0 -17 -28z"/>
<path d="M1910 1968 l1 -133 54 60 c29 33 51 62 48 65 -3 3 -22 -15 -43 -39
l-39 -45 0 107 0 107 30 0 c36 0 36 -5 3 -53 -14 -21 -24 -41 -21 -43 3 -3 18
14 34 38 49 72 50 68 -11 68 l-56 0 0 -132z"/>
<path d="M1760 1963 l1 -128 49 55 c28 30 50 60 50 65 -1 6 -18 -10 -40 -35
l-39 -45 -1 108 c0 64 -4 107 -10 107 -6 0 -10 -49 -10 -127z"/>
<path d="M2602 2238 c-28 -28 -1 -75 38 -63 33 11 21 75 -15 75 -6 0 -16 -5
-23 -12z m46 -25 c5 -17 -26 -29 -40 -15 -6 6 -7 15 -3 22 9 14 37 9 43 -7z"/>
<path d="M696 2224 c-9 -8 -16 -19 -16 -24 0 -9 28 -40 36 -40 17 0 44 23 44
38 0 38 -37 53 -64 26z m47 -30 c-3 -8 -12 -14 -19 -14 -20 0 -30 30 -13 40
17 11 40 -7 32 -26z"/>
<path d="M693 1883 c-22 -8 -16 -61 7 -68 39 -12 66 35 38 63 -13 13 -24 14
-45 5z m45 -30 c5 -17 -26 -29 -40 -15 -6 6 -7 15 -3 22 9 14 37 9 43 -7z"/>
<path d="M2603 1863 c-18 -7 -16 -48 3 -64 31 -26 70 25 44 56 -13 15 -25 17
-47 8z m43 -42 c-10 -16 -36 -13 -43 5 -8 22 18 37 36 20 7 -8 10 -19 7 -25z"/>
<path d="M690 1501 c-20 -38 13 -71 51 -51 21 12 25 40 7 58 -18 18 -46 14
-58 -7z m56 -30 c-4 -6 -16 -11 -27 -11 -21 0 -27 35 -6 43 16 6 41 -18 33
-32z"/>
<path d="M2590 1505 c-26 -31 13 -82 44 -56 19 16 21 42 4 59 -16 16 -33 15
-48 -3z m48 -22 c5 -17 -26 -29 -40 -15 -6 6 -7 15 -3 22 9 14 37 9 43 -7z"/>
<path d="M2603 1143 c-18 -6 -16 -48 1 -62 19 -16 56 2 56 27 0 32 -26 48 -57
35z m43 -42 c-10 -16 -36 -13 -43 5 -8 22 18 37 36 20 7 -8 10 -19 7 -25z"/>
</g>
</svg>
